REM DIRINDEX 1\2,1\3
REM DIRNAME folder01,folder02,folder03
TITLE ""
FILE "CD1Track42.mp3" MP3
  TRACK 01 AUDIO
    TITLE "0:"
    INDEX 01 00:00:00
  TRACK 02 AUDIO
    TITLE "2:cjc102_2008"
    INDEX 01 00:00:23
  TRACK 03 AUDIO
    TITLE "0:"
    INDEX 01 00:01:15
  TRACK 04 AUDIO
    TITLE "3:cjc102_2009"
    INDEX 01 00:01:19
  TRACK 05 AUDIO
    TITLE "0:"
    INDEX 01 00:02:57
  TRACK 06 AUDIO
    TITLE "3:cjc102_2010"
    INDEX 01 00:03:37
  TRACK 07 AUDIO
    TITLE "0:"
    INDEX 01 00:07:13
  TRACK 08 AUDIO
    TITLE "2:cjc102_2011"
    INDEX 01 00:07:19
  TRACK 09 AUDIO
    TITLE "0:"
    INDEX 01 00:08:15
  TRACK 10 AUDIO
    TITLE "3:cjc102_2012"
    INDEX 01 00:09:30
  TRACK 11 AUDIO
    TITLE "0:"
    INDEX 01 00:10:23
  TRACK 12 AUDIO
    TITLE "2:cjc102_2013"
    INDEX 01 00:10:27
  TRACK 13 AUDIO
    TITLE "0:"
    INDEX 01 00:11:27
  TRACK 14 AUDIO
    TITLE "3:cjc102_2014"
    INDEX 01 00:11:66
  TRACK 15 AUDIO
    TITLE "0:"
    INDEX 01 00:12:50
  TRACK 16 AUDIO
    TITLE "2:cjc102_2015"
    INDEX 01 00:13:10
  TRACK 17 AUDIO
    TITLE "0:"
    INDEX 01 00:14:25
  TRACK 18 AUDIO
    TITLE "3:cjc102_2016"
    INDEX 01 00:14:72
  TRACK 19 AUDIO
    TITLE "0:"
    INDEX 01 00:15:70
  TRACK 20 AUDIO
    TITLE "2:cjc102_2017"
    INDEX 01 00:16:22
  TRACK 21 AUDIO
    TITLE "0:"
    INDEX 01 00:17:31
  TRACK 22 AUDIO
    TITLE "3:cjc102_2018"
    INDEX 01 00:18:13
  TRACK 23 AUDIO
    TITLE "0:"
    INDEX 01 00:19:09
  TRACK 24 AUDIO
    TITLE "2:cjc102_2019"
    INDEX 01 00:19:32
  TRACK 25 AUDIO
    TITLE "0:"
    INDEX 01 00:20:39
  TRACK 26 AUDIO
    TITLE "3:cjc102_2020"
    INDEX 01 00:21:39
  TRACK 27 AUDIO
    TITLE "0:"
    INDEX 01 00:22:21
  TRACK 28 AUDIO
    TITLE "2:cjc102_2021"
    INDEX 01 00:22:68
  TRACK 29 AUDIO
    TITLE "0:"
    INDEX 01 00:24:02
  TRACK 30 AUDIO
    TITLE "3:cjc102_2022"
    INDEX 01 00:24:69
  TRACK 31 AUDIO
    TITLE "0:"
    INDEX 01 00:25:66
  TRACK 32 AUDIO
    TITLE "2:cjc102_2023"
    INDEX 01 00:25:68
  TRACK 33 AUDIO
    TITLE "0:"
    INDEX 01 00:27:00
  TRACK 34 AUDIO
    TITLE "3:cjc102_2024"
    INDEX 01 00:27:71
  TRACK 35 AUDIO
    TITLE "0:"
    INDEX 01 00:28:66
  TRACK 36 AUDIO
    TITLE "2:cjc102_2025"
    INDEX 01 00:29:33
  TRACK 37 AUDIO
    TITLE "0:"
    INDEX 01 00:30:42
  TRACK 38 AUDIO
    TITLE "3:cjc102_2026"
    INDEX 01 00:31:26
  TRACK 39 AUDIO
    TITLE "0:"
    INDEX 01 00:32:23
  TRACK 40 AUDIO
    TITLE "2:cjc102_2027"
    INDEX 01 00:32:54
  TRACK 41 AUDIO
    TITLE "0:"
    INDEX 01 00:33:62
  TRACK 42 AUDIO
    TITLE "3:cjc102_2028"
    INDEX 01 00:35:12
  TRACK 43 AUDIO
    TITLE "0:"
    INDEX 01 00:36:05
  TRACK 44 AUDIO
    TITLE "2:cjc102_2029"
    INDEX 01 00:36:19
  TRACK 45 AUDIO
    TITLE "0:"
    INDEX 01 00:37:08
  TRACK 46 AUDIO
    TITLE "3:cjc102_2030"
    INDEX 01 00:38:10
  TRACK 47 AUDIO
    TITLE "0:"
    INDEX 01 00:39:05
  TRACK 48 AUDIO
    TITLE "2:cjc102_2031"
    INDEX 01 00:39:15
  TRACK 49 AUDIO
    TITLE "0:"
    INDEX 01 00:40:34
  TRACK 50 AUDIO
    TITLE "3:cjc102_2032"
    INDEX 01 00:41:59
  TRACK 51 AUDIO
    TITLE "0:"
    INDEX 01 00:42:72
  TRACK 52 AUDIO
    TITLE "2:cjc102_2033"
    INDEX 01 00:43:03
  TRACK 53 AUDIO
    TITLE "0:"
    INDEX 01 00:44:09
  TRACK 54 AUDIO
    TITLE "3:cjc102_2034"
    INDEX 01 00:44:58
  TRACK 55 AUDIO
    TITLE "0:"
    INDEX 01 00:45:71
  TRACK 56 AUDIO
    TITLE "2:cjc102_2035"
    INDEX 01 00:46:00
  TRACK 57 AUDIO
    TITLE "0:"
    INDEX 01 00:47:05
  TRACK 58 AUDIO
    TITLE "3:cjc102_2036"
    INDEX 01 00:47:44
  TRACK 59 AUDIO
    TITLE "0:"
    INDEX 01 00:48:63
  TRACK 60 AUDIO
    TITLE "2:cjc102_2037"
    INDEX 01 00:49:00
  TRACK 61 AUDIO
    TITLE "0:"
    INDEX 01 00:50:05
  TRACK 62 AUDIO
    TITLE "3:cjc102_2038"
    INDEX 01 00:50:48
  TRACK 63 AUDIO
    TITLE "0:"
    INDEX 01 00:51:67
  TRACK 64 AUDIO
    TITLE "2:cjc102_2039"
    INDEX 01 00:52:14
  TRACK 65 AUDIO
    TITLE "0:"
    INDEX 01 00:53:13
  TRACK 66 AUDIO
    TITLE "3:cjc102_2040"
    INDEX 01 00:53:51
  TRACK 67 AUDIO
    TITLE "0:"
    INDEX 01 00:54:60
  TRACK 68 AUDIO
    TITLE "2:cjc102_2041"
    INDEX 01 00:54:74
  TRACK 69 AUDIO
    TITLE "0:"
    INDEX 01 00:56:04
  TRACK 70 AUDIO
    TITLE "3:cjc102_2042"
    INDEX 01 00:56:53
  TRACK 71 AUDIO
    TITLE "0:"
    INDEX 01 00:57:64
  TRACK 72 AUDIO
    TITLE "2:cjc102_2043"
    INDEX 01 00:57:70
  TRACK 73 AUDIO
    TITLE "0:"
    INDEX 01 00:59:04
  TRACK 74 AUDIO
    TITLE "3:cjc102_2044"
    INDEX 01 01:00:08
  TRACK 75 AUDIO
    TITLE "0:"
    INDEX 01 01:01:27
  TRACK 76 AUDIO
    TITLE "2:cjc102_2045"
    INDEX 01 01:01:40
  TRACK 77 AUDIO
    TITLE "0:"
    INDEX 01 01:02:44
  TRACK 78 AUDIO
    TITLE "2:cjc102_2046"
    INDEX 01 01:03:22
  TRACK 79 AUDIO
    TITLE "0:"
    INDEX 01 01:04:37
  TRACK 80 AUDIO
    TITLE "3:cjc102_2047"
    INDEX 01 01:04:56
  TRACK 81 AUDIO
    TITLE "0:"
    INDEX 01 01:06:06
  TRACK 82 AUDIO
    TITLE "2:cjc102_2048"
    INDEX 01 01:06:24
  TRACK 83 AUDIO
    TITLE "0:"
    INDEX 01 01:07:31
  TRACK 84 AUDIO
    TITLE "2:cjc102_2049"
    INDEX 01 01:08:21
  TRACK 85 AUDIO
    TITLE "0:"
    INDEX 01 01:09:32
  TRACK 86 AUDIO
    TITLE "3:cjc102_2050"
    INDEX 01 01:10:04
  TRACK 87 AUDIO
    TITLE "0:"
    INDEX 01 01:11:29
  TRACK 88 AUDIO
    TITLE "2:cjc102_2051"
    INDEX 01 01:11:39
  TRACK 89 AUDIO
    TITLE "0:"
    INDEX 01 01:12:40
  TRACK 90 AUDIO
    TITLE "2:cjc102_2052"
    INDEX 01 01:13:18
  TRACK 91 AUDIO
    TITLE "0:"
    INDEX 01 01:14:33
  TRACK 92 AUDIO
    TITLE "3:cjc102_2053"
    INDEX 01 01:15:60
  TRACK 93 AUDIO
    TITLE "0:"
    INDEX 01 01:16:56
  TRACK 94 AUDIO
    TITLE "2:cjc102_2054"
    INDEX 01 01:16:60
  TRACK 95 AUDIO
    TITLE "0:"
    INDEX 01 01:17:57
  TRACK 96 AUDIO
    TITLE "2:cjc102_2055"
    INDEX 01 01:18:43
  TRACK 97 AUDIO
    TITLE "0:"
    INDEX 01 01:19:50
  TRACK 98 AUDIO
    TITLE "3:cjc102_2056"
    INDEX 01 01:20:46
  TRACK 99 AUDIO
    TITLE "0:"
    INDEX 01 01:21:59
  TRACK 100 AUDIO
    TITLE "2:cjc102_2057"
    INDEX 01 01:21:61
  TRACK 101 AUDIO
    TITLE "0:"
    INDEX 01 01:22:60
  TRACK 102 AUDIO
    TITLE "2:cjc102_2058"
    INDEX 01 01:23:42
  TRACK 103 AUDIO
    TITLE "0:"
    INDEX 01 01:24:51
  TRACK 104 AUDIO
    TITLE "3:cjc102_2059"
    INDEX 01 01:25:25
  TRACK 105 AUDIO
    TITLE "0:"
    INDEX 01 01:26:44
  TRACK 106 AUDIO
    TITLE "2:cjc102_2060"
    INDEX 01 01:26:46
  TRACK 107 AUDIO
    TITLE "0:"
    INDEX 01 01:27:53
  TRACK 108 AUDIO
    TITLE "2:cjc102_2061"
    INDEX 01 01:28:37
  TRACK 109 AUDIO
    TITLE "0:"
    INDEX 01 01:29:52
  TRACK 110 AUDIO
    TITLE "3:cjc102_2062"
    INDEX 01 01:30:34
  TRACK 111 AUDIO
    TITLE "0:"
    INDEX 01 01:31:63
  TRACK 112 AUDIO
    TITLE "2:cjc102_2063"
    INDEX 01 01:31:67
  TRACK 113 AUDIO
    TITLE "0:"
    INDEX 01 01:34:06
  TRACK 114 AUDIO
    TITLE "3:cjc102_2064"
    INDEX 01 01:34:61
  TRACK 115 AUDIO
    TITLE "0:"
    INDEX 01 01:36:17
  TRACK 116 AUDIO
    TITLE "2:cjc102_2065"
    INDEX 01 01:36:21
  TRACK 117 AUDIO
    TITLE "0:"
    INDEX 01 01:39:19
  TRACK 118 AUDIO
    TITLE "3:cjc102_2066"
    INDEX 01 01:40:19
  TRACK 119 AUDIO
    TITLE "0:"
    INDEX 01 01:41:42
  TRACK 120 AUDIO
    TITLE "2:cjc102_2067"
    INDEX 01 01:41:61
  TRACK 121 AUDIO
    TITLE "0:"
    INDEX 01 01:45:36
